<svg xmlns="http://www.w3.org/2000/svg" xmlns:xlink="http://www.w3.org/1999/xlink" width="400" zoomAndPan="magnify" viewBox="0 0 300 52.499999" height="70" preserveAspectRatio="xMidYMid meet" version="1.0"><defs><g/><clipPath id="id1"><path d="M 29 25 L 60 25 L 60 52.003906 L 29 52.003906 Z M 29 25 " clip-rule="nonzero"/></clipPath><clipPath id="id2"><path d="M 49 13 L 90 13 L 90 52.003906 L 49 52.003906 Z M 49 13 " clip-rule="nonzero"/></clipPath><clipPath id="id3"><path d="M 53 0 L 154 0 L 154 52.003906 L 53 52.003906 Z M 53 0 " clip-rule="nonzero"/></clipPath><clipPath id="id4"><path d="M 84 19 L 148 19 L 148 52.003906 L 84 52.003906 Z M 84 19 " clip-rule="nonzero"/></clipPath></defs><path fill="#ff5757" d="M 76.632812 -43.25 L 84.457031 -35.425781 L 29.929688 19.101562 L 22.105469 11.28125 L 76.632812 -43.25 " fill-opacity="1" fill-rule="nonzero"/><g clip-path="url(#id1)"><path fill="#38b6ff" d="M 36.589844 25.660156 L 59.132812 48.203125 L 51.773438 55.566406 L 29.226562 33.019531 L 36.589844 25.660156 " fill-opacity="1" fill-rule="nonzero"/></g><g clip-path="url(#id2)"><path fill="#ff5757" d="M 49.589844 18.652344 L 55.113281 13.132812 L 89.84375 47.863281 L 84.324219 53.386719 L 49.589844 18.652344 " fill-opacity="1" fill-rule="nonzero"/></g><path fill="#38b6ff" d="M 57.019531 11.546875 L 68.296875 0.269531 L 103.039062 35.015625 L 91.765625 46.289062 L 57.019531 11.546875 " fill-opacity="1" fill-rule="nonzero"/><g clip-path="url(#id3)"><path fill="#ffde59" d="M 70.0625 -1.828125 L 84.328125 -16.09375 L 119.070312 18.652344 L 104.804688 32.914062 L 70.0625 -1.828125 M 60.957031 49.976562 L 91.78125 80.796875 L 84.417969 88.160156 L 53.59375 57.335938 L 60.957031 49.976562 M 122.40625 -11.367188 L 153.238281 19.460938 L 146.332031 26.363281 L 115.503906 -4.464844 L 122.40625 -11.367188 " fill-opacity="1" fill-rule="nonzero"/></g><g clip-path="url(#id4)"><path fill="#ffde59" d="M 140.472656 19.105469 L 147.144531 25.777344 L 91.027344 81.898438 L 84.355469 75.222656 L 140.472656 19.105469 " fill-opacity="1" fill-rule="nonzero"/></g><path fill="#ff5757" d="M 22.222656 11.167969 L 34.414062 23.355469 L 26.820312 30.949219 L 14.628906 18.757812 L 22.222656 11.167969 M 83.90625 -50.519531 L 96.097656 -38.328125 L 88.503906 -30.730469 L 76.3125 -42.925781 L 83.90625 -50.519531 " fill-opacity="1" fill-rule="nonzero"/><g fill="#000000" fill-opacity="1"><g transform="translate(122.685309, 31.179448)"><g><path d="M 1.9375 -0.0234375 L 5.484375 -0.0234375 L 5.484375 -4.707031 L 9.007812 -4.707031 C 12.792969 -4.707031 14.898438 -7.472656 14.898438 -10.546875 C 14.898438 -13.667969 12.863281 -16.578125 9.007812 -16.578125 C 6.644531 -16.578125 4.304688 -16.601562 1.9375 -16.578125 Z M 9.007812 -7.734375 L 5.414062 -7.734375 L 5.414062 -13.480469 C 6.621094 -13.480469 7.804688 -13.503906 9.007812 -13.480469 C 10.570312 -13.480469 11.515625 -12.179688 11.515625 -10.640625 C 11.515625 -9.058594 10.523438 -7.734375 9.007812 -7.734375 Z M 9.007812 -7.734375 "/></g></g></g><g fill="#000000" fill-opacity="1"><g transform="translate(138.173384, 31.179448)"><g><path d="M 12.933594 -5.746094 C 12.933594 -9.765625 9.882812 -11.65625 6.835938 -11.632812 C 3.832031 -11.609375 0.851562 -9.695312 0.851562 -5.746094 C 0.851562 -1.75 3.902344 0.238281 6.929688 0.238281 C 9.933594 0.238281 12.933594 -1.75 12.933594 -5.746094 Z M 4.136719 -5.746094 C 4.136719 -7.804688 5.535156 -8.726562 6.929688 -8.726562 C 8.324219 -8.726562 9.648438 -7.78125 9.648438 -5.746094 C 9.648438 -3.664062 8.253906 -2.625 6.859375 -2.648438 C 5.484375 -2.648438 4.136719 -3.6875 4.136719 -5.746094 Z M 4.136719 -5.746094 "/></g></g></g><g fill="#000000" fill-opacity="1"><g transform="translate(151.958955, 31.179448)"><g><path d="M 4.707031 -17.308594 L 1.441406 -17.308594 L 1.441406 -4.421875 C 1.441406 -0.332031 3.570312 0.542969 7.09375 -0.09375 L 6.976562 -2.578125 C 5.390625 -2.316406 4.707031 -2.671875 4.707031 -4.421875 Z M 4.707031 -17.308594 "/></g></g></g><g fill="#000000" fill-opacity="1"><g transform="translate(159.265543, 31.179448)"><g><path d="M 8.039062 1.113281 L 12.769531 -11.019531 L 12.769531 -11.398438 L 9.410156 -11.398438 L 8.039062 -7.519531 L 6.738281 -3.335938 L 6.667969 -3.335938 L 5.179688 -7.542969 L 3.640625 -11.398438 L 0.164062 -11.398438 L 0.164062 -11.019531 L 5.15625 0.0234375 L 4.730469 1.207031 C 4.066406 3.097656 3.097656 3.808594 1.230469 2.980469 L 0.875 5.273438 C 5.011719 6.785156 6.597656 4.824219 8.039062 1.113281 Z M 8.039062 1.113281 "/></g></g></g><g fill="#000000" fill-opacity="1"><g transform="translate(172.483615, 31.179448)"><g><path d="M 9.410156 -7.285156 L 12.558594 -7.285156 C 12.035156 -10.261719 9.53125 -11.632812 6.953125 -11.632812 C 3.949219 -11.632812 0.851562 -9.742188 0.851562 -5.746094 C 0.851562 -1.726562 3.925781 0.261719 6.929688 0.238281 C 9.554688 0.210938 12.132812 -1.324219 12.605469 -4.375 L 9.457031 -4.375 C 9.058594 -3.167969 8.0625 -2.53125 7.023438 -2.53125 C 5.460938 -2.53125 4.136719 -3.6875 4.136719 -5.746094 C 4.136719 -7.78125 5.460938 -8.796875 7.023438 -8.796875 C 8.160156 -8.796875 9.007812 -8.347656 9.410156 -7.285156 Z M 9.410156 -7.285156 "/></g></g></g><g fill="#000000" fill-opacity="1"><g transform="translate(185.819912, 31.179448)"><g><path d="M 9.410156 0 L 12.746094 0 L 12.746094 -6.597656 C 12.746094 -9.53125 11.515625 -11.632812 8.253906 -11.632812 C 6.835938 -11.632812 5.605469 -11.183594 4.871094 -10.167969 L 4.871094 -17.261719 L 1.535156 -17.261719 L 1.535156 0 L 4.871094 0 L 4.871094 -6.527344 C 4.871094 -8.109375 5.984375 -9.035156 7.308594 -9.007812 C 8.535156 -9.007812 9.484375 -8.207031 9.410156 -6.597656 Z M 9.410156 0 "/></g></g></g><g fill="#000000" fill-opacity="1"><g transform="translate(199.960178, 31.179448)"><g><path d="M 4.988281 -9.695312 C 4.800781 -11.730469 2.484375 -11.730469 0.828125 -11.351562 L 0.828125 -9.316406 C 1.867188 -9.484375 1.960938 -8.867188 1.960938 -7.921875 L 1.960938 0 L 5.203125 0 L 5.203125 -6.054688 C 5.203125 -7.804688 6.433594 -8.75 7.875 -8.75 C 8.609375 -8.773438 9.316406 -8.582031 10.003906 -8.132812 L 10.734375 -10.902344 C 10.074219 -11.398438 9.175781 -11.65625 8.300781 -11.632812 C 6.90625 -11.632812 5.460938 -10.996094 4.988281 -9.695312 Z M 4.988281 -9.695312 "/></g></g></g><g fill="#000000" fill-opacity="1"><g transform="translate(210.908237, 31.179448)"><g><path d="M 12.933594 -5.746094 C 12.933594 -9.765625 9.882812 -11.65625 6.835938 -11.632812 C 3.832031 -11.609375 0.851562 -9.695312 0.851562 -5.746094 C 0.851562 -1.75 3.902344 0.238281 6.929688 0.238281 C 9.933594 0.238281 12.933594 -1.75 12.933594 -5.746094 Z M 4.136719 -5.746094 C 4.136719 -7.804688 5.535156 -8.726562 6.929688 -8.726562 C 8.324219 -8.726562 9.648438 -7.78125 9.648438 -5.746094 C 9.648438 -3.664062 8.253906 -2.625 6.859375 -2.648438 C 5.484375 -2.648438 4.136719 -3.6875 4.136719 -5.746094 Z M 4.136719 -5.746094 "/></g></g></g><g fill="#000000" fill-opacity="1"><g transform="translate(224.693807, 31.179448)"><g><path d="M 16.625 0 L 19.957031 0 L 19.957031 -6.597656 C 20.027344 -9.363281 19.273438 -11.632812 16.03125 -11.632812 C 14.449219 -11.632812 12.769531 -10.972656 12.082031 -9.578125 C 11.539062 -10.972656 10.59375 -11.632812 8.609375 -11.632812 C 7.1875 -11.632812 5.558594 -11.136719 4.941406 -9.835938 C 4.941406 -12.105469 2.316406 -11.730469 0.828125 -11.304688 L 0.828125 -9.292969 C 1.84375 -9.363281 1.914062 -9.035156 1.914062 -7.921875 L 1.914062 0 L 5.203125 0 L 5.203125 -6.503906 C 5.203125 -8.039062 6.242188 -8.960938 7.449219 -8.984375 C 8.65625 -9.007812 9.433594 -8.109375 9.410156 -6.574219 L 9.410156 0 L 12.675781 0 L 12.675781 -6.574219 C 12.699219 -8.085938 13.621094 -8.960938 14.78125 -8.984375 C 15.914062 -9.007812 16.695312 -8.109375 16.625 -6.597656 Z M 16.625 0 "/></g></g></g><g fill="#000000" fill-opacity="1"><g transform="translate(246.06972, 31.179448)"><g><path d="M 8.84375 -1.75 C 8.84375 0.285156 10.734375 0.378906 12.460938 0 L 12.4375 -1.84375 C 11.351562 -1.773438 11.375 -2.339844 11.375 -3.3125 L 11.375 -7.449219 C 11.375 -10.734375 8.867188 -11.609375 5.933594 -11.609375 C 4.398438 -11.609375 2.933594 -11.351562 1.632812 -10.6875 L 2.199219 -8.609375 C 2.957031 -8.890625 4.28125 -9.269531 5.722656 -9.269531 C 7.046875 -9.269531 8.207031 -8.679688 8.207031 -7.449219 L 8.207031 -6.335938 C 7.285156 -6.714844 6.21875 -6.859375 5.179688 -6.859375 C 2.269531 -6.859375 0.757812 -5.085938 0.757812 -3.167969 C 0.757812 -1.160156 2.246094 0.238281 4.894531 0.238281 C 6.359375 0.238281 8.160156 -0.332031 8.84375 -1.75 Z M 8.207031 -4.398438 C 8.085938 -2.835938 6.644531 -2.199219 5.558594 -2.199219 C 4.515625 -2.199219 4.019531 -2.789062 4.019531 -3.359375 C 4.019531 -4.234375 4.636719 -4.824219 5.816406 -4.824219 C 6.738281 -4.824219 7.710938 -4.636719 8.207031 -4.398438 Z M 8.207031 -4.398438 "/></g></g></g><g fill="#000000" fill-opacity="1"><g transform="translate(259.169556, 31.179448)"><g><path d="M 5.886719 -11.375 L 5.886719 -14.921875 L 3.238281 -14.921875 L 2.886719 -11.375 L 0.496094 -11.375 L 0.496094 -9.105469 L 2.648438 -8.890625 L 2.648438 -4.585938 C 2.648438 0.09375 6.125 0.734375 10.050781 -0.355469 L 9.742188 -2.859375 C 7.851562 -2.175781 5.886719 -2.292969 5.886719 -4.660156 L 5.886719 -8.890625 L 9.601562 -8.890625 L 9.601562 -11.375 Z M 5.886719 -11.375 "/></g></g></g><g fill="#000000" fill-opacity="1"><g transform="translate(269.810224, 31.179448)"><g><path d="M 1.277344 -14.921875 C 1.277344 -12.484375 5.15625 -12.460938 5.15625 -14.921875 C 5.15625 -17.378906 1.277344 -17.453125 1.277344 -14.921875 Z M 4.871094 0 L 4.871094 -11.351562 L 1.5625 -11.351562 L 1.5625 0 Z M 4.871094 0 "/></g></g></g><g fill="#000000" fill-opacity="1"><g transform="translate(276.241912, 31.179448)"><g><path d="M 9.410156 -7.285156 L 12.558594 -7.285156 C 12.035156 -10.261719 9.53125 -11.632812 6.953125 -11.632812 C 3.949219 -11.632812 0.851562 -9.742188 0.851562 -5.746094 C 0.851562 -1.726562 3.925781 0.261719 6.929688 0.238281 C 9.554688 0.210938 12.132812 -1.324219 12.605469 -4.375 L 9.457031 -4.375 C 9.058594 -3.167969 8.0625 -2.53125 7.023438 -2.53125 C 5.460938 -2.53125 4.136719 -3.6875 4.136719 -5.746094 C 4.136719 -7.78125 5.460938 -8.796875 7.023438 -8.796875 C 8.160156 -8.796875 9.007812 -8.347656 9.410156 -7.285156 Z M 9.410156 -7.285156 "/></g></g></g><g fill="#000000" fill-opacity="1"><g transform="translate(208.312915, 38.865677)"><g><path d="M 1.210938 -2.851562 L 1.210938 -3.746094 L 0.824219 -3.746094 L 0.777344 -2.851562 L 0.136719 -2.851562 L 0.136719 -2.542969 L 0.75 -2.515625 L 0.75 -1.050781 C 0.75 -0.273438 1.097656 0.0546875 1.664062 0.0546875 C 1.882812 0.0546875 2.132812 0.0117188 2.40625 -0.078125 L 2.355469 -0.441406 C 2.144531 -0.363281 1.960938 -0.320312 1.800781 -0.320312 C 1.433594 -0.320312 1.210938 -0.554688 1.210938 -1.0625 L 1.210938 -2.515625 L 2.265625 -2.515625 L 2.265625 -2.851562 Z M 1.210938 -2.851562 "/></g></g></g><g fill="#000000" fill-opacity="1"><g transform="translate(210.815105, 38.865677)"><g><path d="M 2.578125 0 L 3.054688 0 L 3.054688 -1.671875 C 3.054688 -2.414062 2.6875 -2.914062 1.902344 -2.917969 C 1.457031 -2.917969 1.175781 -2.789062 0.921875 -2.472656 L 0.921875 -4.34375 L 0.453125 -4.34375 L 0.453125 0 L 0.921875 0 L 0.921875 -1.652344 C 0.921875 -2.179688 1.265625 -2.539062 1.78125 -2.53125 C 2.28125 -2.53125 2.585938 -2.21875 2.578125 -1.671875 Z M 2.578125 0 "/></g></g></g><g fill="#000000" fill-opacity="1"><g transform="translate(214.286082, 38.865677)"><g><path d="M 1.734375 -2.917969 C 0.949219 -2.917969 0.296875 -2.414062 0.265625 -1.507812 C 0.238281 -0.535156 0.910156 0.0546875 1.859375 0.0546875 C 2.210938 0.0546875 2.574219 -0.03125 2.914062 -0.191406 L 2.839844 -0.539062 C 2.507812 -0.402344 2.199219 -0.332031 1.871094 -0.332031 C 1.222656 -0.332031 0.703125 -0.726562 0.730469 -1.386719 L 2.996094 -1.386719 C 3.15625 -2.328125 2.710938 -2.914062 1.734375 -2.917969 Z M 1.734375 -2.550781 C 2.246094 -2.550781 2.644531 -2.28125 2.613281 -1.742188 L 0.75 -1.742188 C 0.824219 -2.257812 1.210938 -2.550781 1.734375 -2.550781 Z M 1.734375 -2.550781 "/></g></g></g><g fill="#000000" fill-opacity="1"><g transform="translate(217.578749, 38.865677)"><g/></g></g><g fill="#000000" fill-opacity="1"><g transform="translate(219.118099, 38.865677)"><g><path d="M 2.578125 0 L 3.054688 0 L 3.054688 -1.671875 C 3.054688 -2.414062 2.6875 -2.914062 1.902344 -2.917969 C 1.457031 -2.917969 1.175781 -2.789062 0.921875 -2.472656 L 0.921875 -4.34375 L 0.453125 -4.34375 L 0.453125 0 L 0.921875 0 L 0.921875 -1.652344 C 0.921875 -2.179688 1.265625 -2.539062 1.78125 -2.53125 C 2.28125 -2.53125 2.585938 -2.21875 2.578125 -1.671875 Z M 2.578125 0 "/></g></g></g><g fill="#000000" fill-opacity="1"><g transform="translate(222.589076, 38.865677)"><g><path d="M 0.402344 -3.808594 C 0.402344 -3.410156 0.992188 -3.410156 0.992188 -3.808594 C 0.992188 -4.203125 0.402344 -4.203125 0.402344 -3.808594 Z M 0.925781 0 L 0.925781 -2.863281 L 0.464844 -2.863281 L 0.464844 0 Z M 0.925781 0 "/></g></g></g><g fill="#000000" fill-opacity="1"><g transform="translate(223.97984, 38.865677)"><g><path d="M 2.621094 -0.613281 C 2.621094 0.0078125 2.886719 0.0898438 3.351562 0.0117188 L 3.347656 -0.328125 C 2.9375 -0.28125 3.007812 -0.558594 3.007812 -0.945312 L 3.007812 -4.351562 L 2.542969 -4.351562 L 2.542969 -2.632812 C 2.253906 -2.828125 1.945312 -2.917969 1.644531 -2.917969 C 0.910156 -2.925781 0.265625 -2.359375 0.265625 -1.4375 C 0.265625 -0.636719 0.730469 0.0546875 1.585938 0.0546875 C 2.042969 0.046875 2.425781 -0.179688 2.621094 -0.613281 Z M 2.554688 -2.203125 L 2.554688 -1.3125 C 2.539062 -0.796875 2.199219 -0.363281 1.652344 -0.363281 C 1.035156 -0.363281 0.738281 -0.867188 0.738281 -1.4375 C 0.738281 -2.121094 1.164062 -2.503906 1.6875 -2.507812 C 1.96875 -2.515625 2.277344 -2.414062 2.554688 -2.203125 Z M 2.554688 -2.203125 "/></g></g></g><g fill="#000000" fill-opacity="1"><g transform="translate(227.551852, 38.865677)"><g><path d="M 2.621094 -0.613281 C 2.621094 0.0078125 2.886719 0.0898438 3.351562 0.0117188 L 3.347656 -0.328125 C 2.9375 -0.28125 3.007812 -0.558594 3.007812 -0.945312 L 3.007812 -4.351562 L 2.542969 -4.351562 L 2.542969 -2.632812 C 2.253906 -2.828125 1.945312 -2.917969 1.644531 -2.917969 C 0.910156 -2.925781 0.265625 -2.359375 0.265625 -1.4375 C 0.265625 -0.636719 0.730469 0.0546875 1.585938 0.0546875 C 2.042969 0.046875 2.425781 -0.179688 2.621094 -0.613281 Z M 2.554688 -2.203125 L 2.554688 -1.3125 C 2.539062 -0.796875 2.199219 -0.363281 1.652344 -0.363281 C 1.035156 -0.363281 0.738281 -0.867188 0.738281 -1.4375 C 0.738281 -2.121094 1.164062 -2.503906 1.6875 -2.507812 C 1.96875 -2.515625 2.277344 -2.414062 2.554688 -2.203125 Z M 2.554688 -2.203125 "/></g></g></g><g fill="#000000" fill-opacity="1"><g transform="translate(231.123865, 38.865677)"><g><path d="M 1.734375 -2.917969 C 0.949219 -2.917969 0.296875 -2.414062 0.265625 -1.507812 C 0.238281 -0.535156 0.910156 0.0546875 1.859375 0.0546875 C 2.210938 0.0546875 2.574219 -0.03125 2.914062 -0.191406 L 2.839844 -0.539062 C 2.507812 -0.402344 2.199219 -0.332031 1.871094 -0.332031 C 1.222656 -0.332031 0.703125 -0.726562 0.730469 -1.386719 L 2.996094 -1.386719 C 3.15625 -2.328125 2.710938 -2.914062 1.734375 -2.917969 Z M 1.734375 -2.550781 C 2.246094 -2.550781 2.644531 -2.28125 2.613281 -1.742188 L 0.75 -1.742188 C 0.824219 -2.257812 1.210938 -2.550781 1.734375 -2.550781 Z M 1.734375 -2.550781 "/></g></g></g><g fill="#000000" fill-opacity="1"><g transform="translate(234.416531, 38.865677)"><g><path d="M 2.667969 0 L 3.136719 0 L 3.136719 -1.695312 C 3.136719 -2.394531 2.746094 -2.917969 1.992188 -2.917969 C 1.585938 -2.917969 1.234375 -2.824219 0.980469 -2.4375 C 0.980469 -2.988281 0.539062 -2.917969 0.207031 -2.871094 L 0.214844 -2.503906 C 0.515625 -2.53125 0.546875 -2.429688 0.546875 -2.042969 L 0.546875 0 L 1.011719 0 L 1.011719 -1.71875 C 1.011719 -2.199219 1.378906 -2.53125 1.867188 -2.53125 C 2.335938 -2.53125 2.667969 -2.210938 2.667969 -1.695312 Z M 2.667969 0 "/></g></g></g><g fill="#000000" fill-opacity="1"><g transform="translate(237.970716, 38.865677)"><g/></g></g><g fill="#000000" fill-opacity="1"><g transform="translate(239.510066, 38.865677)"><g><path d="M 0.6875 -0.808594 L 0.238281 -0.808594 C 0.285156 -0.15625 0.886719 0.0546875 1.507812 0.0546875 C 2.175781 0.0351562 2.769531 -0.230469 2.769531 -0.820312 C 2.789062 -1.496094 2.15625 -1.582031 1.558594 -1.660156 C 1.027344 -1.734375 0.761719 -1.808594 0.753906 -2.085938 C 0.738281 -2.417969 1.140625 -2.550781 1.503906 -2.550781 C 1.878906 -2.550781 2.246094 -2.40625 2.246094 -2.097656 L 2.691406 -2.097656 C 2.710938 -2.652344 2.097656 -2.917969 1.503906 -2.917969 C 0.910156 -2.917969 0.296875 -2.667969 0.316406 -2.074219 C 0.332031 -1.480469 0.949219 -1.359375 1.515625 -1.296875 C 2.042969 -1.21875 2.316406 -1.148438 2.316406 -0.820312 C 2.300781 -0.46875 1.90625 -0.320312 1.507812 -0.320312 C 1.125 -0.320312 0.71875 -0.445312 0.6875 -0.808594 Z M 0.6875 -0.808594 "/></g></g></g><g fill="#000000" fill-opacity="1"><g transform="translate(242.535283, 38.865677)"><g><path d="M 2.578125 0 L 3.054688 0 L 3.054688 -1.671875 C 3.054688 -2.414062 2.6875 -2.914062 1.902344 -2.917969 C 1.457031 -2.917969 1.175781 -2.789062 0.921875 -2.472656 L 0.921875 -4.34375 L 0.453125 -4.34375 L 0.453125 0 L 0.921875 0 L 0.921875 -1.652344 C 0.921875 -2.179688 1.265625 -2.539062 1.78125 -2.53125 C 2.28125 -2.53125 2.585938 -2.21875 2.578125 -1.671875 Z M 2.578125 0 "/></g></g></g><g fill="#000000" fill-opacity="1"><g transform="translate(246.00626, 38.865677)"><g><path d="M 2.378906 -0.515625 C 2.378906 0.0078125 2.601562 0.09375 3.078125 0.0195312 L 3.074219 -0.285156 C 2.722656 -0.238281 2.738281 -0.421875 2.738281 -0.738281 L 2.738281 -1.929688 C 2.757812 -2.679688 2.132812 -2.917969 1.484375 -2.917969 C 1.105469 -2.917969 0.742188 -2.847656 0.464844 -2.703125 L 0.539062 -2.335938 C 0.785156 -2.476562 1.085938 -2.542969 1.414062 -2.542969 C 1.808594 -2.542969 2.316406 -2.425781 2.316406 -1.945312 L 2.316406 -1.527344 C 2.03125 -1.6875 1.660156 -1.734375 1.332031 -1.734375 C 0.738281 -1.734375 0.238281 -1.421875 0.238281 -0.785156 C 0.238281 -0.203125 0.71875 0.0546875 1.25 0.0546875 C 1.683594 0.0546875 2.167969 -0.117188 2.378906 -0.515625 Z M 2.3125 -1.171875 L 2.3125 -0.988281 C 2.191406 -0.523438 1.707031 -0.34375 1.332031 -0.34375 C 1.011719 -0.34375 0.695312 -0.445312 0.695312 -0.8125 C 0.695312 -1.222656 1.070312 -1.371094 1.4375 -1.371094 C 1.769531 -1.371094 2.132812 -1.277344 2.3125 -1.171875 Z M 2.3125 -1.171875 "/></g></g></g><g fill="#000000" fill-opacity="1"><g transform="translate(249.239496, 38.865677)"><g><path d="M 2.621094 -0.613281 C 2.621094 0.0078125 2.886719 0.0898438 3.351562 0.0117188 L 3.347656 -0.328125 C 2.9375 -0.28125 3.007812 -0.558594 3.007812 -0.945312 L 3.007812 -4.351562 L 2.542969 -4.351562 L 2.542969 -2.632812 C 2.253906 -2.828125 1.945312 -2.917969 1.644531 -2.917969 C 0.910156 -2.925781 0.265625 -2.359375 0.265625 -1.4375 C 0.265625 -0.636719 0.730469 0.0546875 1.585938 0.0546875 C 2.042969 0.046875 2.425781 -0.179688 2.621094 -0.613281 Z M 2.554688 -2.203125 L 2.554688 -1.3125 C 2.539062 -0.796875 2.199219 -0.363281 1.652344 -0.363281 C 1.035156 -0.363281 0.738281 -0.867188 0.738281 -1.4375 C 0.738281 -2.121094 1.164062 -2.503906 1.6875 -2.507812 C 1.96875 -2.515625 2.277344 -2.414062 2.554688 -2.203125 Z M 2.554688 -2.203125 "/></g></g></g><g fill="#000000" fill-opacity="1"><g transform="translate(252.811508, 38.865677)"><g><path d="M 1.734375 -2.917969 C 0.949219 -2.917969 0.296875 -2.414062 0.265625 -1.507812 C 0.238281 -0.535156 0.910156 0.0546875 1.859375 0.0546875 C 2.210938 0.0546875 2.574219 -0.03125 2.914062 -0.191406 L 2.839844 -0.539062 C 2.507812 -0.402344 2.199219 -0.332031 1.871094 -0.332031 C 1.222656 -0.332031 0.703125 -0.726562 0.730469 -1.386719 L 2.996094 -1.386719 C 3.15625 -2.328125 2.710938 -2.914062 1.734375 -2.917969 Z M 1.734375 -2.550781 C 2.246094 -2.550781 2.644531 -2.28125 2.613281 -1.742188 L 0.75 -1.742188 C 0.824219 -2.257812 1.210938 -2.550781 1.734375 -2.550781 Z M 1.734375 -2.550781 "/></g></g></g><g fill="#000000" fill-opacity="1"><g transform="translate(256.104175, 38.865677)"><g/></g></g><g fill="#000000" fill-opacity="1"><g transform="translate(257.643525, 38.865677)"><g><path d="M 3.285156 -1.4375 C 3.285156 -2.429688 2.539062 -2.917969 1.78125 -2.917969 C 1.027344 -2.917969 0.265625 -2.4375 0.265625 -1.4375 C 0.265625 -0.445312 1.015625 0.046875 1.765625 0.0546875 C 2.527344 0.0585938 3.285156 -0.445312 3.285156 -1.4375 Z M 0.738281 -1.4375 C 0.738281 -2.164062 1.253906 -2.519531 1.777344 -2.519531 C 2.300781 -2.519531 2.824219 -2.164062 2.824219 -1.4375 C 2.824219 -0.707031 2.304688 -0.332031 1.78125 -0.332031 C 1.261719 -0.332031 0.738281 -0.707031 0.738281 -1.4375 Z M 0.738281 -1.4375 "/></g></g></g><g fill="#000000" fill-opacity="1"><g transform="translate(261.19771, 38.865677)"><g><path d="M 0.753906 -2.484375 L 0.753906 0 L 1.21875 0 L 1.21875 -2.484375 L 2.257812 -2.484375 L 2.257812 -2.839844 L 1.21875 -2.839844 L 1.21875 -3.351562 C 1.21875 -4.105469 1.792969 -4.125 2.367188 -3.886719 L 2.429688 -4.230469 C 1.570312 -4.566406 0.761719 -4.390625 0.761719 -3.324219 L 0.761719 -2.839844 L 0.144531 -2.839844 L 0.144531 -2.484375 Z M 0.753906 -2.484375 "/></g></g></g><g fill="#000000" fill-opacity="1"><g transform="translate(263.515657, 38.865677)"><g/></g></g><g fill="#000000" fill-opacity="1"><g transform="translate(265.055007, 38.865677)"><g><path d="M 1.820312 0.203125 L 3.078125 -2.816406 L 3.078125 -2.863281 L 2.609375 -2.863281 L 2.085938 -1.574219 L 1.652344 -0.453125 L 1.644531 -0.453125 L 1.175781 -1.585938 L 0.605469 -2.863281 L 0.113281 -2.863281 L 0.113281 -2.816406 L 1.425781 0.0234375 L 1.261719 0.429688 C 1.070312 0.902344 0.84375 1.261719 0.296875 1.003906 L 0.230469 1.347656 C 1.171875 1.757812 1.496094 0.96875 1.820312 0.203125 Z M 1.820312 0.203125 "/></g></g></g><g fill="#000000" fill-opacity="1"><g transform="translate(268.306071, 38.865677)"><g><path d="M 3.285156 -1.4375 C 3.285156 -2.429688 2.539062 -2.917969 1.78125 -2.917969 C 1.027344 -2.917969 0.265625 -2.4375 0.265625 -1.4375 C 0.265625 -0.445312 1.015625 0.046875 1.765625 0.0546875 C 2.527344 0.0585938 3.285156 -0.445312 3.285156 -1.4375 Z M 0.738281 -1.4375 C 0.738281 -2.164062 1.253906 -2.519531 1.777344 -2.519531 C 2.300781 -2.519531 2.824219 -2.164062 2.824219 -1.4375 C 2.824219 -0.707031 2.304688 -0.332031 1.78125 -0.332031 C 1.261719 -0.332031 0.738281 -0.707031 0.738281 -1.4375 Z M 0.738281 -1.4375 "/></g></g></g><g fill="#000000" fill-opacity="1"><g transform="translate(271.860255, 38.865677)"><g><path d="M 2.941406 -2.863281 L 2.476562 -2.863281 L 2.476562 -1.199219 C 2.476562 -0.664062 2.128906 -0.328125 1.628906 -0.328125 C 1.152344 -0.328125 0.878906 -0.671875 0.886719 -1.195312 L 0.886719 -2.863281 L 0.417969 -2.863281 L 0.417969 -1.195312 C 0.417969 -0.488281 0.726562 0.0546875 1.492188 0.0546875 C 1.890625 0.0546875 2.292969 -0.046875 2.515625 -0.445312 C 2.484375 0.0546875 2.839844 0.0820312 3.285156 0.0078125 L 3.28125 -0.316406 C 2.984375 -0.285156 2.941406 -0.34375 2.941406 -0.765625 Z M 2.941406 -2.863281 "/></g></g></g><g fill="#000000" fill-opacity="1"><g transform="translate(275.34906, 38.865677)"><g><path d="M 0.96875 -2.460938 C 0.949219 -2.898438 0.636719 -2.949219 0.191406 -2.871094 L 0.195312 -2.5625 C 0.535156 -2.589844 0.539062 -2.429688 0.539062 -2.167969 L 0.539062 0 L 1 0 L 1 -1.757812 C 1 -2.210938 1.378906 -2.503906 1.789062 -2.503906 C 2.007812 -2.503906 2.210938 -2.429688 2.394531 -2.3125 L 2.507812 -2.703125 C 2.3125 -2.847656 2.085938 -2.917969 1.835938 -2.917969 C 1.472656 -2.917969 1.140625 -2.792969 0.96875 -2.460938 Z M 0.96875 -2.460938 "/></g></g></g><g fill="#000000" fill-opacity="1"><g transform="translate(277.922569, 38.865677)"><g><path d="M 0.6875 -0.808594 L 0.238281 -0.808594 C 0.285156 -0.15625 0.886719 0.0546875 1.507812 0.0546875 C 2.175781 0.0351562 2.769531 -0.230469 2.769531 -0.820312 C 2.789062 -1.496094 2.15625 -1.582031 1.558594 -1.660156 C 1.027344 -1.734375 0.761719 -1.808594 0.753906 -2.085938 C 0.738281 -2.417969 1.140625 -2.550781 1.503906 -2.550781 C 1.878906 -2.550781 2.246094 -2.40625 2.246094 -2.097656 L 2.691406 -2.097656 C 2.710938 -2.652344 2.097656 -2.917969 1.503906 -2.917969 C 0.910156 -2.917969 0.296875 -2.667969 0.316406 -2.074219 C 0.332031 -1.480469 0.949219 -1.359375 1.515625 -1.296875 C 2.042969 -1.21875 2.316406 -1.148438 2.316406 -0.820312 C 2.300781 -0.46875 1.90625 -0.320312 1.507812 -0.320312 C 1.125 -0.320312 0.71875 -0.445312 0.6875 -0.808594 Z M 0.6875 -0.808594 "/></g></g></g><g fill="#000000" fill-opacity="1"><g transform="translate(280.947786, 38.865677)"><g><path d="M 1.734375 -2.917969 C 0.949219 -2.917969 0.296875 -2.414062 0.265625 -1.507812 C 0.238281 -0.535156 0.910156 0.0546875 1.859375 0.0546875 C 2.210938 0.0546875 2.574219 -0.03125 2.914062 -0.191406 L 2.839844 -0.539062 C 2.507812 -0.402344 2.199219 -0.332031 1.871094 -0.332031 C 1.222656 -0.332031 0.703125 -0.726562 0.730469 -1.386719 L 2.996094 -1.386719 C 3.15625 -2.328125 2.710938 -2.914062 1.734375 -2.917969 Z M 1.734375 -2.550781 C 2.246094 -2.550781 2.644531 -2.28125 2.613281 -1.742188 L 0.75 -1.742188 C 0.824219 -2.257812 1.210938 -2.550781 1.734375 -2.550781 Z M 1.734375 -2.550781 "/></g></g></g><g fill="#000000" fill-opacity="1"><g transform="translate(284.240453, 38.865677)"><g><path d="M 0.890625 -4.355469 L 0.421875 -4.355469 L 0.421875 -1.027344 C 0.421875 -0.273438 0.664062 0.0546875 1.285156 0.0546875 C 1.414062 0.0546875 1.503906 0.0351562 1.628906 0.0195312 L 1.609375 -0.320312 C 1.515625 -0.308594 1.433594 -0.304688 1.359375 -0.304688 C 0.976562 -0.304688 0.890625 -0.480469 0.890625 -1.027344 Z M 0.890625 -4.355469 "/></g></g></g><g fill="#000000" fill-opacity="1"><g transform="translate(285.874899, 38.865677)"><g><path d="M 0.753906 -2.484375 L 0.753906 0 L 1.21875 0 L 1.21875 -2.484375 L 2.257812 -2.484375 L 2.257812 -2.839844 L 1.21875 -2.839844 L 1.21875 -3.351562 C 1.21875 -4.105469 1.792969 -4.125 2.367188 -3.886719 L 2.429688 -4.230469 C 1.570312 -4.566406 0.761719 -4.390625 0.761719 -3.324219 L 0.761719 -2.839844 L 0.144531 -2.839844 L 0.144531 -2.484375 Z M 0.753906 -2.484375 "/></g></g></g></svg>