<svg xmlns="http://www.w3.org/2000/svg" xmlns:xlink="http://www.w3.org/1999/xlink" width="400" zoomAndPan="magnify" viewBox="0 0 300 52.499999" height="70" preserveAspectRatio="xMidYMid meet" version="1.0"><defs><g/><clipPath id="id1"><path d="M 29 25 L 60 25 L 60 52.003906 L 29 52.003906 Z M 29 25 " clip-rule="nonzero"/></clipPath><clipPath id="id2"><path d="M 49 13 L 90 13 L 90 52.003906 L 49 52.003906 Z M 49 13 " clip-rule="nonzero"/></clipPath><clipPath id="id3"><path d="M 53 0 L 154 0 L 154 52.003906 L 53 52.003906 Z M 53 0 " clip-rule="nonzero"/></clipPath><clipPath id="id4"><path d="M 84 19 L 148 19 L 148 52.003906 L 84 52.003906 Z M 84 19 " clip-rule="nonzero"/></clipPath></defs><path fill="#ff5757" d="M 76.632812 -43.25 L 84.457031 -35.425781 L 29.929688 19.101562 L 22.105469 11.28125 L 76.632812 -43.25 " fill-opacity="1" fill-rule="nonzero"/><g clip-path="url(#id1)"><path fill="#38b6ff" d="M 36.589844 25.660156 L 59.132812 48.203125 L 51.773438 55.566406 L 29.226562 33.019531 L 36.589844 25.660156 " fill-opacity="1" fill-rule="nonzero"/></g><g clip-path="url(#id2)"><path fill="#ff5757" d="M 49.589844 18.652344 L 55.113281 13.132812 L 89.84375 47.863281 L 84.324219 53.386719 L 49.589844 18.652344 " fill-opacity="1" fill-rule="nonzero"/></g><path fill="#38b6ff" d="M 57.019531 11.546875 L 68.296875 0.269531 L 103.039062 35.015625 L 91.765625 46.289062 L 57.019531 11.546875 " fill-opacity="1" fill-rule="nonzero"/><g clip-path="url(#id3)"><path fill="#ffde59" d="M 70.0625 -1.828125 L 84.328125 -16.09375 L 119.070312 18.652344 L 104.804688 32.914062 L 70.0625 -1.828125 M 60.957031 49.976562 L 91.78125 80.796875 L 84.417969 88.160156 L 53.59375 57.335938 L 60.957031 49.976562 M 122.40625 -11.367188 L 153.238281 19.460938 L 146.332031 26.363281 L 115.503906 -4.464844 L 122.40625 -11.367188 " fill-opacity="1" fill-rule="nonzero"/></g><g clip-path="url(#id4)"><path fill="#ffde59" d="M 140.472656 19.105469 L 147.144531 25.777344 L 91.027344 81.898438 L 84.355469 75.222656 L 140.472656 19.105469 " fill-opacity="1" fill-rule="nonzero"/></g><path fill="#ff5757" d="M 22.222656 11.167969 L 34.414062 23.355469 L 26.820312 30.949219 L 14.628906 18.757812 L 22.222656 11.167969 M 83.90625 -50.519531 L 96.097656 -38.328125 L 88.503906 -30.730469 L 76.3125 -42.925781 L 83.90625 -50.519531 " fill-opacity="1" fill-rule="nonzero"/><g fill="#ffffff" fill-opacity="0.4"><g transform="translate(85.756022, 35.656123)"><g><path d="M 9.09375 -18.613281 L 2.285156 -18.613281 L 2.285156 0 L 5 0 L 5 -6.195312 L 9.09375 -6.195312 C 13.109375 -6.195312 15.128906 -9.28125 15.128906 -12.390625 C 15.128906 -15.503906 13.109375 -18.613281 9.09375 -18.613281 Z M 9.09375 -8.855469 L 5 -8.855469 L 5 -15.902344 L 9.09375 -15.902344 C 11.355469 -15.902344 12.472656 -14.148438 12.472656 -12.363281 C 12.472656 -10.609375 11.355469 -8.855469 9.09375 -8.855469 Z M 9.09375 -8.855469 "/></g></g></g><g fill="#ffffff" fill-opacity="0.4"><g transform="translate(101.549322, 35.656123)"><g><path d="M 16.886719 -7.179688 C 16.886719 -12.125 13.054688 -14.625 9.175781 -14.625 C 5.265625 -14.625 1.382812 -12.152344 1.382812 -7.179688 C 1.382812 -2.234375 5.238281 0.265625 9.09375 0.265625 C 13.003906 0.265625 16.886719 -2.207031 16.886719 -7.179688 Z M 3.988281 -7.179688 C 3.988281 -10.609375 6.566406 -12.3125 9.175781 -12.3125 C 11.726562 -12.3125 14.304688 -10.582031 14.304688 -7.179688 C 14.304688 -3.800781 11.726562 -2.074219 9.148438 -2.074219 C 6.566406 -2.074219 3.988281 -3.777344 3.988281 -7.179688 Z M 3.988281 -7.179688 "/></g></g></g><g fill="#ffffff" fill-opacity="0.4"><g transform="translate(120.001431, 35.656123)"><g><path d="M 1.996094 0 L 4.601562 0 L 4.601562 -18.613281 L 1.996094 -18.613281 Z M 1.996094 0 "/></g></g></g><g fill="#ffffff" fill-opacity="0.4"><g transform="translate(126.595274, 35.656123)"><g><path d="M 11.675781 -14.597656 L 9.199219 -8.191406 L 7.527344 -3.511719 L 5.902344 -8.21875 L 3.296875 -14.597656 L 0.53125 -14.597656 L 6.144531 -0.746094 L 4.121094 4.441406 L 6.886719 4.441406 L 14.4375 -14.597656 Z M 11.675781 -14.597656 "/></g></g></g><g fill="#ffffff" fill-opacity="0.4"><g transform="translate(141.537757, 35.656123)"><g><path d="M 16.089844 -5.476562 L 13.402344 -5.476562 C 12.765625 -3.191406 10.847656 -2.074219 8.882812 -2.074219 C 6.410156 -2.074219 3.960938 -3.75 3.960938 -7.207031 C 3.960938 -10.636719 6.433594 -12.3125 8.855469 -12.3125 C 10.824219 -12.3125 12.765625 -11.195312 13.402344 -8.910156 L 16.089844 -8.910156 C 15.371094 -12.738281 12.097656 -14.625 8.828125 -14.625 C 5.078125 -14.625 1.355469 -12.179688 1.355469 -7.207031 C 1.355469 -2.261719 5.050781 0.210938 8.773438 0.210938 C 12.046875 0.210938 15.371094 -1.621094 16.089844 -5.476562 Z M 16.089844 -5.476562 "/></g></g></g><g fill="#ffffff" fill-opacity="0.4"><g transform="translate(158.952926, 35.656123)"><g><path d="M 4.492188 -12.605469 L 4.492188 -18.613281 L 1.914062 -18.613281 L 1.914062 0 L 4.492188 0 L 4.492188 -7.816406 C 4.492188 -10.316406 5.984375 -12.285156 8.722656 -12.285156 C 11.859375 -12.285156 12.578125 -10.425781 12.578125 -7.710938 L 12.578125 0 L 15.183594 0 L 15.183594 -7.738281 C 15.183594 -11.859375 13.296875 -14.597656 8.910156 -14.597656 C 7.101562 -14.597656 5.585938 -14.148438 4.492188 -12.605469 Z M 4.492188 -12.605469 "/></g></g></g><g fill="#ffffff" fill-opacity="0.4"><g transform="translate(176.181986, 35.656123)"><g><path d="M 4.574219 -12.605469 L 4.574219 -14.359375 L 1.996094 -14.359375 L 1.996094 0 L 4.574219 0 L 4.574219 -7.792969 C 4.574219 -10.425781 6.59375 -12.363281 9.015625 -12.363281 C 9.441406 -12.363281 9.890625 -12.3125 10.34375 -12.179688 L 10.34375 -14.464844 C 9.757812 -14.597656 9.199219 -14.679688 8.640625 -14.679688 C 7.046875 -14.679688 5.609375 -14.039062 4.574219 -12.605469 Z M 4.574219 -12.605469 "/></g></g></g><g fill="#ffffff" fill-opacity="0.4"><g transform="translate(187.348969, 35.656123)"><g><path d="M 16.886719 -7.179688 C 16.886719 -12.125 13.054688 -14.625 9.175781 -14.625 C 5.265625 -14.625 1.382812 -12.152344 1.382812 -7.179688 C 1.382812 -2.234375 5.238281 0.265625 9.09375 0.265625 C 13.003906 0.265625 16.886719 -2.207031 16.886719 -7.179688 Z M 3.988281 -7.179688 C 3.988281 -10.609375 6.566406 -12.3125 9.175781 -12.3125 C 11.726562 -12.3125 14.304688 -10.582031 14.304688 -7.179688 C 14.304688 -3.800781 11.726562 -2.074219 9.148438 -2.074219 C 6.566406 -2.074219 3.988281 -3.777344 3.988281 -7.179688 Z M 3.988281 -7.179688 "/></g></g></g><g fill="#ffffff" fill-opacity="0.4"><g transform="translate(205.801078, 35.656123)"><g><path d="M 4.945312 -12.605469 L 4.945312 -14.625 L 2.339844 -14.625 L 2.339844 0 L 4.945312 0 L 4.945312 -7.816406 C 4.945312 -10.636719 6.675781 -12.207031 8.960938 -12.207031 C 11.355469 -12.207031 12.125 -10.105469 12.125 -8.082031 L 12.125 0 L 14.730469 0 L 14.730469 -8.109375 C 14.730469 -10.449219 16.007812 -12.207031 18.5625 -12.207031 C 21.0625 -12.207031 21.566406 -10.183594 21.566406 -8.164062 L 21.566406 0 L 24.171875 0 L 24.171875 -8.191406 C 24.171875 -11.832031 22.445312 -14.625 18.480469 -14.625 C 16.378906 -14.597656 14.757812 -13.722656 13.882812 -12.125 C 12.816406 -14.148438 11.007812 -14.625 8.988281 -14.625 C 7.3125 -14.625 5.929688 -14.039062 4.945312 -12.605469 Z M 4.945312 -12.605469 "/></g></g></g><g fill="#ffffff" fill-opacity="0.4"><g transform="translate(231.990296, 35.656123)"><g><path d="M 16.9375 0 L 16.9375 -14.386719 L 14.332031 -14.386719 L 14.359375 -12.472656 C 13.082031 -14.199219 10.929688 -14.625 9.148438 -14.625 C 4.28125 -14.625 1.460938 -11.140625 1.460938 -7.257812 C 1.460938 -3.296875 4.175781 0.238281 9.199219 0.238281 C 10.984375 0.210938 13.296875 -0.371094 14.332031 -1.941406 L 14.332031 0 Z M 14.332031 -7.207031 C 14.332031 -3.75 11.539062 -2.074219 9.148438 -2.074219 C 5.957031 -2.074219 4.070312 -4.546875 4.070312 -7.257812 C 4.070312 -10.105469 5.984375 -12.339844 9.148438 -12.339844 C 11.59375 -12.339844 14.332031 -10.636719 14.332031 -7.207031 Z M 14.332031 -7.207031 "/></g></g></g><g fill="#ffffff" fill-opacity="0.4"><g transform="translate(250.655102, 35.656123)"><g><path d="M 5.398438 -14.386719 L 5.398438 -17.578125 L 2.792969 -17.070312 L 2.792969 -14.386719 L 0.636719 -14.386719 L 0.636719 -12.3125 L 2.792969 -12.3125 L 2.792969 -4.226562 C 2.792969 -0.878906 4.628906 0.078125 7.445312 0.078125 C 7.816406 0.078125 8.21875 0.0546875 8.640625 0.0273438 L 8.640625 -2.152344 C 8.242188 -2.128906 7.871094 -2.101562 7.550781 -2.101562 C 6.25 -2.101562 5.398438 -2.5 5.398438 -4.203125 L 5.398438 -12.3125 L 8.5625 -12.3125 L 8.5625 -14.386719 Z M 5.398438 -14.386719 "/></g></g></g><g fill="#ffffff" fill-opacity="0.4"><g transform="translate(259.801397, 35.656123)"><g><path d="M 1.835938 -18.082031 C 1.835938 -17.070312 2.660156 -16.566406 3.457031 -16.566406 C 4.28125 -16.566406 5.078125 -17.070312 5.078125 -18.082031 C 5.078125 -19.09375 4.28125 -19.570312 3.484375 -19.570312 C 2.660156 -19.570312 1.835938 -19.066406 1.835938 -18.082031 Z M 2.152344 -14.546875 L 4.761719 -14.546875 L 4.761719 0 L 2.152344 0 Z M 2.152344 -14.546875 "/></g></g></g><g fill="#ffffff" fill-opacity="0.4"><g transform="translate(266.953578, 35.656123)"><g><path d="M 16.089844 -5.476562 L 13.402344 -5.476562 C 12.765625 -3.191406 10.847656 -2.074219 8.882812 -2.074219 C 6.410156 -2.074219 3.960938 -3.75 3.960938 -7.207031 C 3.960938 -10.636719 6.433594 -12.3125 8.855469 -12.3125 C 10.824219 -12.3125 12.765625 -11.195312 13.402344 -8.910156 L 16.089844 -8.910156 C 15.371094 -12.738281 12.097656 -14.625 8.828125 -14.625 C 5.078125 -14.625 1.355469 -12.179688 1.355469 -7.207031 C 1.355469 -2.261719 5.050781 0.210938 8.773438 0.210938 C 12.046875 0.210938 15.371094 -1.621094 16.089844 -5.476562 Z M 16.089844 -5.476562 "/></g></g></g><g fill="#ffffff" fill-opacity="1"><g transform="translate(84.580539, 34.480639)"><g><path d="M 9.09375 -18.613281 L 2.285156 -18.613281 L 2.285156 0 L 5 0 L 5 -6.195312 L 9.09375 -6.195312 C 13.109375 -6.195312 15.128906 -9.28125 15.128906 -12.390625 C 15.128906 -15.503906 13.109375 -18.613281 9.09375 -18.613281 Z M 9.09375 -8.855469 L 5 -8.855469 L 5 -15.902344 L 9.09375 -15.902344 C 11.355469 -15.902344 12.472656 -14.148438 12.472656 -12.363281 C 12.472656 -10.609375 11.355469 -8.855469 9.09375 -8.855469 Z M 9.09375 -8.855469 "/></g></g></g><g fill="#ffffff" fill-opacity="1"><g transform="translate(100.37384, 34.480639)"><g><path d="M 16.886719 -7.179688 C 16.886719 -12.125 13.054688 -14.625 9.175781 -14.625 C 5.265625 -14.625 1.382812 -12.152344 1.382812 -7.179688 C 1.382812 -2.234375 5.238281 0.265625 9.09375 0.265625 C 13.003906 0.265625 16.886719 -2.207031 16.886719 -7.179688 Z M 3.988281 -7.179688 C 3.988281 -10.609375 6.566406 -12.3125 9.175781 -12.3125 C 11.726562 -12.3125 14.304688 -10.582031 14.304688 -7.179688 C 14.304688 -3.800781 11.726562 -2.074219 9.148438 -2.074219 C 6.566406 -2.074219 3.988281 -3.777344 3.988281 -7.179688 Z M 3.988281 -7.179688 "/></g></g></g><g fill="#ffffff" fill-opacity="1"><g transform="translate(118.825949, 34.480639)"><g><path d="M 1.996094 0 L 4.601562 0 L 4.601562 -18.613281 L 1.996094 -18.613281 Z M 1.996094 0 "/></g></g></g><g fill="#ffffff" fill-opacity="1"><g transform="translate(125.419791, 34.480639)"><g><path d="M 11.675781 -14.597656 L 9.199219 -8.191406 L 7.527344 -3.511719 L 5.902344 -8.21875 L 3.296875 -14.597656 L 0.53125 -14.597656 L 6.144531 -0.746094 L 4.121094 4.441406 L 6.886719 4.441406 L 14.4375 -14.597656 Z M 11.675781 -14.597656 "/></g></g></g><g fill="#ffffff" fill-opacity="1"><g transform="translate(140.362275, 34.480639)"><g><path d="M 16.089844 -5.476562 L 13.402344 -5.476562 C 12.765625 -3.191406 10.847656 -2.074219 8.882812 -2.074219 C 6.410156 -2.074219 3.960938 -3.75 3.960938 -7.207031 C 3.960938 -10.636719 6.433594 -12.3125 8.855469 -12.3125 C 10.824219 -12.3125 12.765625 -11.195312 13.402344 -8.910156 L 16.089844 -8.910156 C 15.371094 -12.738281 12.097656 -14.625 8.828125 -14.625 C 5.078125 -14.625 1.355469 -12.179688 1.355469 -7.207031 C 1.355469 -2.261719 5.050781 0.210938 8.773438 0.210938 C 12.046875 0.210938 15.371094 -1.621094 16.089844 -5.476562 Z M 16.089844 -5.476562 "/></g></g></g><g fill="#ffffff" fill-opacity="1"><g transform="translate(157.777443, 34.480639)"><g><path d="M 4.492188 -12.605469 L 4.492188 -18.613281 L 1.914062 -18.613281 L 1.914062 0 L 4.492188 0 L 4.492188 -7.816406 C 4.492188 -10.316406 5.984375 -12.285156 8.722656 -12.285156 C 11.859375 -12.285156 12.578125 -10.425781 12.578125 -7.710938 L 12.578125 0 L 15.183594 0 L 15.183594 -7.738281 C 15.183594 -11.859375 13.296875 -14.597656 8.910156 -14.597656 C 7.101562 -14.597656 5.585938 -14.148438 4.492188 -12.605469 Z M 4.492188 -12.605469 "/></g></g></g><g fill="#ffffff" fill-opacity="1"><g transform="translate(175.006504, 34.480639)"><g><path d="M 4.574219 -12.605469 L 4.574219 -14.359375 L 1.996094 -14.359375 L 1.996094 0 L 4.574219 0 L 4.574219 -7.792969 C 4.574219 -10.425781 6.59375 -12.363281 9.015625 -12.363281 C 9.441406 -12.363281 9.890625 -12.3125 10.34375 -12.179688 L 10.34375 -14.464844 C 9.757812 -14.597656 9.199219 -14.679688 8.640625 -14.679688 C 7.046875 -14.679688 5.609375 -14.039062 4.574219 -12.605469 Z M 4.574219 -12.605469 "/></g></g></g><g fill="#ffffff" fill-opacity="1"><g transform="translate(186.173487, 34.480639)"><g><path d="M 16.886719 -7.179688 C 16.886719 -12.125 13.054688 -14.625 9.175781 -14.625 C 5.265625 -14.625 1.382812 -12.152344 1.382812 -7.179688 C 1.382812 -2.234375 5.238281 0.265625 9.09375 0.265625 C 13.003906 0.265625 16.886719 -2.207031 16.886719 -7.179688 Z M 3.988281 -7.179688 C 3.988281 -10.609375 6.566406 -12.3125 9.175781 -12.3125 C 11.726562 -12.3125 14.304688 -10.582031 14.304688 -7.179688 C 14.304688 -3.800781 11.726562 -2.074219 9.148438 -2.074219 C 6.566406 -2.074219 3.988281 -3.777344 3.988281 -7.179688 Z M 3.988281 -7.179688 "/></g></g></g><g fill="#ffffff" fill-opacity="1"><g transform="translate(204.625595, 34.480639)"><g><path d="M 4.945312 -12.605469 L 4.945312 -14.625 L 2.339844 -14.625 L 2.339844 0 L 4.945312 0 L 4.945312 -7.816406 C 4.945312 -10.636719 6.675781 -12.207031 8.960938 -12.207031 C 11.355469 -12.207031 12.125 -10.105469 12.125 -8.082031 L 12.125 0 L 14.730469 0 L 14.730469 -8.109375 C 14.730469 -10.449219 16.007812 -12.207031 18.5625 -12.207031 C 21.0625 -12.207031 21.566406 -10.183594 21.566406 -8.164062 L 21.566406 0 L 24.171875 0 L 24.171875 -8.191406 C 24.171875 -11.832031 22.445312 -14.625 18.480469 -14.625 C 16.378906 -14.597656 14.757812 -13.722656 13.882812 -12.125 C 12.816406 -14.148438 11.007812 -14.625 8.988281 -14.625 C 7.3125 -14.625 5.929688 -14.039062 4.945312 -12.605469 Z M 4.945312 -12.605469 "/></g></g></g><g fill="#ffffff" fill-opacity="1"><g transform="translate(230.814813, 34.480639)"><g><path d="M 16.9375 0 L 16.9375 -14.386719 L 14.332031 -14.386719 L 14.359375 -12.472656 C 13.082031 -14.199219 10.929688 -14.625 9.148438 -14.625 C 4.28125 -14.625 1.460938 -11.140625 1.460938 -7.257812 C 1.460938 -3.296875 4.175781 0.238281 9.199219 0.238281 C 10.984375 0.210938 13.296875 -0.371094 14.332031 -1.941406 L 14.332031 0 Z M 14.332031 -7.207031 C 14.332031 -3.75 11.539062 -2.074219 9.148438 -2.074219 C 5.957031 -2.074219 4.070312 -4.546875 4.070312 -7.257812 C 4.070312 -10.105469 5.984375 -12.339844 9.148438 -12.339844 C 11.59375 -12.339844 14.332031 -10.636719 14.332031 -7.207031 Z M 14.332031 -7.207031 "/></g></g></g><g fill="#ffffff" fill-opacity="1"><g transform="translate(249.479619, 34.480639)"><g><path d="M 5.398438 -14.386719 L 5.398438 -17.578125 L 2.792969 -17.070312 L 2.792969 -14.386719 L 0.636719 -14.386719 L 0.636719 -12.3125 L 2.792969 -12.3125 L 2.792969 -4.226562 C 2.792969 -0.878906 4.628906 0.078125 7.445312 0.078125 C 7.816406 0.078125 8.21875 0.0546875 8.640625 0.0273438 L 8.640625 -2.152344 C 8.242188 -2.128906 7.871094 -2.101562 7.550781 -2.101562 C 6.25 -2.101562 5.398438 -2.5 5.398438 -4.203125 L 5.398438 -12.3125 L 8.5625 -12.3125 L 8.5625 -14.386719 Z M 5.398438 -14.386719 "/></g></g></g><g fill="#ffffff" fill-opacity="1"><g transform="translate(258.625914, 34.480639)"><g><path d="M 1.835938 -18.082031 C 1.835938 -17.070312 2.660156 -16.566406 3.457031 -16.566406 C 4.28125 -16.566406 5.078125 -17.070312 5.078125 -18.082031 C 5.078125 -19.09375 4.28125 -19.570312 3.484375 -19.570312 C 2.660156 -19.570312 1.835938 -19.066406 1.835938 -18.082031 Z M 2.152344 -14.546875 L 4.761719 -14.546875 L 4.761719 0 L 2.152344 0 Z M 2.152344 -14.546875 "/></g></g></g><g fill="#ffffff" fill-opacity="1"><g transform="translate(265.778096, 34.480639)"><g><path d="M 16.089844 -5.476562 L 13.402344 -5.476562 C 12.765625 -3.191406 10.847656 -2.074219 8.882812 -2.074219 C 6.410156 -2.074219 3.960938 -3.75 3.960938 -7.207031 C 3.960938 -10.636719 6.433594 -12.3125 8.855469 -12.3125 C 10.824219 -12.3125 12.765625 -11.195312 13.402344 -8.910156 L 16.089844 -8.910156 C 15.371094 -12.738281 12.097656 -14.625 8.828125 -14.625 C 5.078125 -14.625 1.355469 -12.179688 1.355469 -7.207031 C 1.355469 -2.261719 5.050781 0.210938 8.773438 0.210938 C 12.046875 0.210938 15.371094 -1.621094 16.089844 -5.476562 Z M 16.089844 -5.476562 "/></g></g></g></svg>