<svg xmlns="http://www.w3.org/2000/svg" width="500" viewBox="0 0 375 375" height="500" version="1.0"><path fill="#ff5757" d="m169.61 44.836 18.03 18.031-125.68 125.68-18.03-18.031 125.68-125.68"/><path fill="#38b6ff" d="m77.313 203.656 51.964 51.965-16.968 16.969-51.965-51.965 16.968-16.969"/><path fill="#ff5757" d="m107.281 187.512 12.727-12.73 80.05 80.05-12.726 12.73-80.05-80.05"/><path fill="#38b6ff" d="m124.402 171.129 25.989-25.988 80.078 80.082-25.985 25.984-80.082-80.078"/><path fill="#ffde59" d="m154.46 140.305 32.884-32.883 80.078 80.082-32.879 32.879-80.082-80.078M133.48 259.703l71.04 71.04-16.97 16.968-71.042-71.04 16.972-16.968m141.633-141.387 71.055 71.059-15.91 15.906-71.055-71.054 15.91-15.91"/><path fill="#ffde59" d="m316.75 188.555 15.379 15.379-129.344 129.343-15.379-15.379L316.75 188.555"/><path d="M138.759 196.954c4.926 0 7.332-3.473 7.332-7.617 0-4.172-2.488-7.98-7.277-7.98-1.457 0-2.942.421-3.977 1.706v-1.511h-4.367v19.57h4.367v-5.82c1.008 1.144 2.438 1.652 3.922 1.652Zm-.477-11.367c2.239 0 3.387 1.816 3.387 3.636s-1.121 3.668-3.387 3.668c-1.906 0-3.445-1.652-3.445-3.668 0-2.015 1.54-3.636 3.445-3.636Zm25.811 3.554c0-5.402-4.032-8.093-8.063-8.093-4.058 0-8.09 2.691-8.09 8.093 0 5.375 4.059 8.063 8.09 8.063s8.063-2.688 8.063-8.063Zm-11.73 0c0-2.578 1.82-3.863 3.667-3.863 2.016 0 3.64 1.285 3.64 3.863 0 2.547-1.82 3.809-3.64 3.809-1.848 0-3.668-1.262-3.668-3.809Zm18.338-12.039h-4.48V196.7h4.48Zm16.741 5.153v-.703h-4.563l-1.875 4.843-1.12 3.836-1.064-3.836-1.88-4.843h-4.587v.703l5.039 13.215-1.962 4.98v.672h4.567c2.46-6.297 4.953-12.57 7.445-18.867Zm16.797 8.007h-4.367c-.504 1.68-1.875 2.461-3.219 2.461-1.68 0-3.36-1.23-3.36-3.609 0-2.383 1.68-3.613 3.36-3.613 1.344 0 2.715.812 3.219 2.492h4.367c-.586-4.453-4.086-6.637-7.586-6.637-3.835 0-7.672 2.634-7.672 7.758 0 5.121 3.837 7.754 7.672 7.754 3.5 0 7-2.184 7.586-6.606Zm6.693-7.199v-6.101h-4.453V196.7h4.676v-8.23c0-1.82 1.597-2.97 2.91-2.97 1.207 0 2.324.868 2.324 2.884v8.316h4.453v-8.344c.055-3.777-1.148-6.972-5.46-7.027-1.622 0-3.36.39-4.45 1.734Zm16.853-.503-.168-1.008h-3.976V196.7h4.394v-8.398c0-2.043 1.625-2.883 3.223-2.915.504 0 1.035.086 1.48.227l.06-4.144a7.508 7.508 0 0 0-1.708-.223c-1.234 0-2.324.39-3.305 1.312Zm22.761 6.581c0-5.402-4.032-8.093-8.063-8.093-4.058 0-8.09 2.691-8.09 8.093 0 5.375 4.059 8.063 8.09 8.063s8.063-2.688 8.063-8.063Zm-11.73 0c0-2.578 1.82-3.863 3.667-3.863 2.016 0 3.64 1.285 3.64 3.863 0 2.547-1.82 3.809-3.64 3.809-1.848 0-3.668-1.262-3.668-3.809Zm18.645-6.078v-1.511h-4.451V196.7h4.676v-8.566c0-1.68 1.37-2.465 2.464-2.465 1.036 0 1.93.672 1.93 2.52v8.511h4.453v-8.625c.028-1.648 1.594-2.406 2.688-2.406 1.035 0 1.93.672 1.93 2.52v8.511h4.453v-8.54c.054-4.956-2.407-6.804-5.403-6.804-1.707 0-3.722.645-4.703 1.989-.73-1.176-1.879-2.016-3.695-2.016-1.598 0-3.305.422-4.34 1.734Zm27.856-1.761c-4.927 0-7.337 3.472-7.337 7.613 0 4.172 2.492 7.98 7.28 7.98 1.458 0 2.938-.418 3.977-1.707v1.512h4.395v-15.148h-4.395v1.57c-.98-1.262-2.437-1.82-3.921-1.82Zm.476 11.367c-2.238 0-3.387-1.82-3.387-3.64 0-1.849 1.118-3.669 3.387-3.669 1.902 0 3.445 1.652 3.445 3.668s-1.543 3.64-3.445 3.64Zm19.876 4.058-.14-3.64c-.391.086-.84.14-1.258.14-1.063 0-2.043-.418-2.043-1.761V185.5h3.163v-3.781h-3.163v-3.274l-4.399.39v2.884h-1.984v3.78h1.984v5.966c0 3.918 2.016 5.488 5.348 5.488.758 0 1.598-.086 2.492-.227Zm2.158-18.504c0 1.649 1.344 2.461 2.688 2.461 1.285 0 2.601-.812 2.601-2.46 0-1.739-1.343-2.579-2.687-2.579-1.285 0-2.602.867-2.602 2.578Zm.418 3.329h4.48V196.7h-4.48Zm22.088 8.71h-4.367c-.504 1.68-1.875 2.461-3.219 2.461-1.68 0-3.36-1.23-3.36-3.609 0-2.383 1.68-3.613 3.36-3.613 1.344 0 2.715.812 3.219 2.492h4.367c-.586-4.453-4.086-6.637-7.586-6.637-3.835 0-7.672 2.634-7.672 7.758 0 5.121 3.837 7.754 7.672 7.754 3.5 0 7-2.184 7.586-6.606Zm0 0"/><path fill="#38b6ff" d="m219.52 62.066 51.96 51.965-16.437 16.442-51.965-51.965 16.442-16.442"/><path fill="#ff5757" d="m44.2 170.254 28.097 28.098-17.5 17.5-28.098-28.098 17.5-17.5M186.371 28.078l28.102 28.102-17.5 17.504-28.102-28.106 17.5-17.5"/></svg>