<svg xmlns="http://www.w3.org/2000/svg" width="500" viewBox="0 0 375 375" height="500" version="1.0"><path fill="none" d="M-37.5-37.5h450v450h-450z"/><path fill="none" d="M-37.5-37.5h450v450h-450z"/><path fill="none" d="M-37.5-37.5h450v450h-450z"/><path fill="none" d="M-37.5-37.5h450v450h-450z"/><path fill="#ff5757" d="m169.61 44.836 18.03 18.031-125.68 125.68-18.03-18.031 125.68-125.68"/><path fill="#38b6ff" d="m77.313 203.656 51.964 51.965-16.968 16.969-51.965-51.965 16.968-16.969"/><path fill="#ff5757" d="m107.281 187.512 12.727-12.73 80.05 80.05-12.726 12.73-80.05-80.05"/><path fill="#38b6ff" d="m124.402 171.129 25.989-25.988 80.078 80.082-25.985 25.984-80.082-80.078"/><path fill="#ffde59" d="m154.46 140.305 32.884-32.883 80.078 80.082-32.879 32.879-80.082-80.078M133.48 259.703l71.04 71.04-16.97 16.968-71.042-71.04 16.972-16.968m141.633-141.387 71.055 71.059-15.91 15.906-71.055-71.054 15.91-15.91"/><path fill="#ffde59" d="m316.75 188.555 15.379 15.379-129.344 129.343-15.379-15.379L316.75 188.555"/><path fill="#38b6ff" d="m219.52 62.066 51.96 51.965-16.437 16.442-51.965-51.965 16.442-16.442"/><path fill="#ff5757" d="m44.2 170.254 28.097 28.098-17.5 17.5-28.098-28.098 17.5-17.5M186.371 28.078l28.102 28.102-17.5 17.504-28.102-28.106 17.5-17.5"/></svg>